Coordinates
version=1
nRows=16
nColumns=42
inDegrees=yes

Units are S.I. units (second, meters, Newtons, ...)
If the header above contains a line with 'inDegrees', this indicates whether rotational values are in degrees (yes) or radians (no).

endheader
time	pelvis_tilt	pelvis_list	pelvis_rotation	pelvis_tx	pelvis_ty	pelvis_tz	hip_flexion_r	hip_adduction_r	hip_rotation_r	knee_angle_r	knee_adduction_r	knee_angle_r_beta	ankle_angle_r	subtalar_angle_r	mtp_angle_r	hip_flexion_l	hip_adduction_l	hip_rotation_l	knee_angle_l	knee_adduction_l	knee_angle_l_beta	ankle_angle_l	subtalar_angle_l	mtp_angle_l	lumbar_extension	lumbar_bending	lumbar_rotation	arm_flex_r	arm_add_r	arm_rot_r	elbow_flex_r	pro_sup_r	wrist_flex_r	wrist_dev_r	arm_flex_l	arm_add_l	arm_rot_l	elbow_flex_l	pro_sup_l	wrist_flex_l	wrist_dev_l
      2.32000000	     13.87535745	      1.40960101	      2.63014230	     -0.50909704	      0.91263444	     -0.00618310	      6.05476379	    -11.63213710	    -22.69625683	     21.33628288	      9.06806146	      0.37238839	      7.02864531	     31.43846266	     -7.51323209	    -25.65999825	      2.81800605	      4.77360209	     20.04202083	     -3.61308872	      0.34979925	     17.45149980	      5.45383172	     -7.51323209	    -33.05139362	      0.41699576	     -5.90291489	    -15.12811892	    -11.92462237	      3.08389525	     36.75320894	     90.00000001	      0.00000000	      0.00000000	     28.00120004	    -14.73230450	    -20.62183375	     48.61514852	     90.00000001	      0.00000000	      0.00000000
      2.33000000	     14.23583202	      1.22851733	      2.50421201	     -0.49938370	      0.91293543	     -0.00455176	      5.23957253	    -11.31439232	    -20.59164601	     21.59502568	      9.77352825	      0.37690430	      6.87408305	     28.76595848	     -7.51238518	    -26.28675372	      2.44030752	      4.99936197	     20.88869869	     -3.23234360	      0.36457657	     16.73409887	      4.66366639	     -7.51238518	    -33.20110333	      0.68279864	     -5.61359058	    -14.40986182	    -11.86967015	      2.68487654	     36.15134166	     90.00000001	      0.00000000	      0.00000000	     27.32394297	    -14.84474640	    -20.67653001	     49.51055866	     90.00000001	      0.00000000	      0.00000000
      2.34000000	     14.65933526	      1.03729428	      2.36241847	     -0.48945495	      0.91336190	     -0.00273399	      4.53252691	    -10.94045115	    -19.99472897	     22.41242951	      9.68508778	      0.39117069	      6.92645758	     28.62983839	     -7.51224223	    -26.78894435	      2.03417503	      4.74269788	     22.04932043	     -2.95902716	      0.38483324	     15.79750507	      4.49410510	     -7.51224223	    -33.40006267	      0.93541322	     -5.40891731	    -13.65436234	    -11.89499285	      2.63224662	     35.65407244	     90.00000001	      0.00000000	      0.00000000	     26.46893565	    -14.99968045	    -20.93838241	     50.53361500	     90.00000001	      0.00000000	      0.00000000
      2.35000000	     15.06713133	      0.81626169	      2.15185293	     -0.47962581	      0.91393508	     -0.00073117	      3.85233990	    -10.46846542	    -19.32967651	     23.14148448	      9.54147787	      0.40389510	      7.05893567	     28.58596572	     -7.51206419	    -27.00991436	      1.63357060	      4.23822699	     23.70084439	     -2.73092137	      0.41365777	     14.64159337	      4.21712151	     -7.51206419	    -33.61133743	      1.16983260	     -5.18752802	    -12.72094370	    -11.91331956	      2.53512956	     35.00700364	     90.00000001	      0.00000000	      0.00000000	     25.45241290	    -15.16525788	    -21.16847694	     51.76168832	     90.00000001	      0.00000000	      0.00000000
      2.36000000	     15.52620793	      0.62218541	      1.89477716	     -0.46977115	      0.91472847	      0.00145637	      3.07075989	    -10.01061463	    -18.69324087	     23.77523981	      9.42121829	      0.41495622	      7.21762118	     28.74460781	     -7.51188545	    -27.06099361	      1.24387071	      3.62331397	     25.76006975	     -2.45692808	      0.44959803	     13.23204065	      4.00381375	     -7.51188545	    -33.88355008	      1.32777116	     -4.92880105	    -11.77469029	    -11.89814062	      2.44707063	     34.42763990	     90.00000001	      0.00000000	      0.00000000	     24.43154045	    -15.30528298	    -21.39673781	     52.88193808	     90.00000001	      0.00000000	      0.00000000
      2.37000000	     16.02985706	      0.41366124	      1.62075083	     -0.45991469	      0.91571596	      0.00375363	      2.18300375	     -9.50985916	    -18.12261551	     24.28486752	      9.27000124	      0.42385090	      7.44892764	     29.06603197	     -7.51171290	    -26.92573185	      0.83462065	      2.90337289	     28.22273687	     -2.22100124	      0.49257968	     11.49276589	      3.77854134	     -7.51171290	    -34.21094782	      1.47096119	     -4.66938621	    -10.77786618	    -11.88690681	      2.38337002	     33.90645762	     90.00000001	      0.00000000	      0.00000000	     23.35267540	    -15.42703615	    -21.63958623	     53.99169975	     90.00000001	      0.00000000	      0.00000000
      2.38000000	     16.54426068	      0.17040295	      1.34823321	     -0.45012984	      0.91680426	      0.00617276	      1.22721995	     -8.93876090	    -17.60829388	     24.66373820	      9.06717230	      0.43046344	      7.74901760	     29.50274987	     -7.51153153	    -26.53674038	      0.37162229	      2.11843721	     31.14843401	     -2.02147543	      0.54364273	      9.45393283	      3.48783520	     -7.51153153	    -34.57143316	      1.61582522	     -4.40681449	     -9.73904194	    -11.87761969	      2.35999745	     33.44335642	     90.00000001	      0.00000000	      0.00000000	     22.23569954	    -15.53799926	    -21.90024135	     55.10314664	     90.00000001	      0.00000000	      0.00000000
      2.39000000	     17.03585710	     -0.12099498	      1.00177544	     -0.44037143	      0.91788757	      0.00891505	      0.27764706	     -8.29549418	    -17.21668765	     24.98218101	      8.79736271	      0.43602131	      8.08256486	     29.98704083	     -7.51126740	    -25.88812046	     -0.18107462	      1.27439202	     34.48963554	     -1.77359457	      0.60195770	      7.37570107	      3.14478506	     -7.51126740	    -34.90258792	      1.72074573	     -4.05443170	     -8.69730034	    -11.86173914	      2.40773981	     33.04936383	     90.00000001	      0.00000000	      0.00000000	     21.10233590	    -15.58040569	    -22.19430481	     56.11233849	     90.00000001	      0.00000000	      0.00000000
      2.40000000	     17.54238195	     -0.37002803	      0.77464610	     -0.43068959	      0.91906202	      0.01139436	     -0.82600408	     -7.75380678	    -16.85704566	     25.11416239	      8.68219721	      0.43832482	      8.53222115	     30.42534991	     -7.51108022	    -25.07665800	     -0.68956985	      0.79316880	     38.03889728	     -1.58366439	      0.66390400	      4.87248861	      2.69016162	     -7.51108022	    -35.26705330	      1.82969300	     -3.83324856	     -7.67731000	    -11.85540529	      2.48187403	     32.86224474	     90.00000001	      0.00000000	      0.00000000	     19.95331644	    -15.61743890	    -22.47741572	     57.07280628	     90.00000001	      0.00000000	      0.00000000
      2.41000000	     17.92597233	     -0.71196117	      0.50716024	     -0.42127362	      0.92001396	      0.01406866	     -1.76830033	     -7.09457299	    -16.37571865	     25.23283725	      8.55928570	      0.44039609	      9.02412304	     30.51040694	     -7.51071767	    -23.89942191	     -1.31434421	      0.34475777	     41.96791508	     -1.35985059	      0.73247830	      2.52748150	      1.93553186	     -7.51071767	    -35.53584150	      1.96954272	     -3.53430560	     -6.61868617	    -11.88892300	      2.65920942	     32.72271304	     90.00000001	      0.00000000	      0.00000000	     18.80534250	    -15.58708435	    -22.80651920	     57.97487837	     90.00000001	      0.00000000	      0.00000000
      2.42000000	     18.26829470	     -1.05908038	      0.29039592	     -0.41196218	      0.92088770	      0.01669701	     -2.71647981	     -6.44225244	    -15.94892958	     25.27466822	      8.45361200	      0.44112618	      9.55234514	     30.58301128	     -7.51031839	    -22.57107421	     -1.94541934	      0.34055779	     45.98386522	     -0.99213099	      0.80256985	      0.28192518	      0.78961431	     -7.51031839	    -35.77495413	      2.11175492	     -3.27123824	     -5.58142019	    -11.93515370	      2.91263024	     32.72651188	     90.00000001	      0.00000000	      0.00000000	     17.67710069	    -15.52431232	    -23.16822716	     58.78566962	     90.00000001	      0.00000000	      0.00000000
      2.43000000	     18.54308921	     -1.38648135	      0.11119652	     -0.40292682	      0.92169493	      0.01925262	     -3.59672122	     -5.85606225	    -15.53229099	     25.30714814	      8.41959545	      0.44169306	     10.12448095	     30.53580336	     -7.50986244	    -21.09660392	     -2.54796809	      0.85648402	     49.96388446	     -0.35221265	      0.87203429	     -1.69586520	     -0.84029773	     -7.50986244	    -35.98188382	      2.22962315	     -3.04506596	     -4.53393195	    -12.01466841	      3.26171611	     32.89054839	     90.00000001	      0.00000000	      0.00000000	     16.60949624	    -15.41519788	    -23.54329216	     59.48012642	     90.00000001	      0.00000000	      0.00000000
      2.44000000	     18.82550725	     -1.50765634	      0.01747492	     -0.39394341	      0.92254408	      0.02140490	     -4.56140364	     -5.61399004	    -14.99247601	     25.30956080	      8.69018866	      0.44173517	     10.76695044	     30.21969510	     -7.50910243	    -19.57393607	     -2.86547141	      2.01578211	     53.82207701	      0.55437018	      0.93937245	     -3.42087466	     -2.83736872	     -7.50910243	    -36.19825617	      2.17267896	     -2.97356425	     -3.59403017	    -12.10234356	      3.67159048	     33.28273044	     90.00000001	      0.00000000	      0.00000000	     15.56153455	    -15.27124163	    -23.85085792	     60.06376013	     90.00000001	      0.00000000	      0.00000000
      2.45000000	     19.05777699	     -1.67176776	     -0.04864367	     -0.38510835	      0.92327388	      0.02351817	     -5.51467372	     -5.30747323	    -14.35628459	     25.14865742	      8.97770796	      0.43892687	     11.44397287	     29.90876915	     -7.50884966	    -17.93608989	     -3.19657908	      2.60113727	     57.52637277	      0.85079783	      1.00402461	     -4.09825374	     -3.26824951	     -7.50884966	    -36.38785046	      2.15641072	     -2.89670944	     -2.65788651	    -12.15254774	      3.77948557	     33.80774159	     90.00000001	      0.00000000	      0.00000000	     14.53356748	    -15.10812831	    -24.10782065	     60.58178632	     90.00000001	      0.00000000	      0.00000000
      2.46000000	     19.14662653	     -1.91463252	     -0.10053474	     -0.37655555	      0.92377486	      0.02573266	     -6.25229184	     -4.86575041	    -13.62549426	     25.03722667	      9.20942812	      0.43698204	     12.11978961	     29.30238172	     -7.50857955	    -16.09697537	     -3.64625780	      3.50126334	     61.12860930	      1.47536483	      1.06689550	     -4.03516057	     -4.36685348	     -7.50857955	    -36.45420060	      2.18317369	     -2.77306622	     -1.71183865	    -12.27592078	      4.08231412	     34.38803929	     90.00000001	      0.00000000	      0.00000000	     13.57049839	    -14.87988033	    -24.43650158	     60.94564253	     90.00000001	      0.00000000	      0.00000000
      2.47000000	     19.31026410	     -1.99860248	     -0.15062183	     -0.36811274	      0.92448598	      0.02774026	     -7.09996910	     -4.66169836	    -12.91697378	     24.90294194	      9.55329580	      0.43463833	     12.72146976	     28.65030992	     -7.50834624	    -14.38259785	     -3.84375065	      4.41179691	     64.32279469	      2.00438539	      1.12264455	     -3.42413474	     -5.26062509	     -7.50834624	    -36.62525889	      2.04712582	     -2.69118183	     -0.81534344	    -12.40828314	      4.36315661	     35.13227883	     90.00000001	      0.00000000	      0.00000000	     12.71568905	    -14.60818238	    -24.66032778	     61.09913977	     90.00000001	      0.00000000	      0.00000000
